<svg width="256" height="256" viewBox="0 0 256 256" fill="none" xmlns="http://www.w3.org/2000/svg">
<rect width="256" height="256" rx="60" fill="url(#paint0_linear_1_2)"/>
<path d="M194.594 213.914L148.019 79.916C145.419 73.916 138.894 70.041 131.944 70.041H124.019C117.069 70.041 110.544 73.916 107.944 79.916L61.3687 213.914C57.7687 222.414 63.9187 231.541 72.8437 231.541H90.8437C98.4187 231.541 105.169 227.166 108.419 220.291L118.919 196.166H136.994L147.494 220.291C150.744 227.166 157.494 231.541 165.069 231.541H183.069C191.994 231.541 198.144 222.414 194.594 213.914ZM127.969 111.416L132.844 122.416L123.094 145.166L113.819 122.416L118.694 111.416C120.494 107.291 125.444 107.291 127.244 111.416H127.969Z" fill="url(#paint1_linear_1_2)"/>
<path d="M118.919 196.166L127.969 175.291L136.994 196.166H118.919Z" fill="url(#paint2_linear_1_2)"/>
<defs>
<linearGradient id="paint0_linear_1_2" x1="128" y1="0" x2="128" y2="256" gradientUnits="userSpaceOnUse">
<stop stop-color="#2E2E2E"/>
<stop offset="1" stop-color="#1A1A1A"/>
</linearGradient>
<linearGradient id="paint1_linear_1_2" x1="127.981" y1="70.041" x2="127.981" y2="231.541" gradientUnits="userSpaceOnUse">
<stop stop-color="white"/>
<stop offset="1" stop-color="#B3B3B3"/>
</linearGradient>
<linearGradient id="paint2_linear_1_2" x1="127.956" y1="175.291" x2="127.956" y2="196.166" gradientUnits="userSpaceOnUse">
<stop stop-color="#E6E6E6"/>
<stop offset="1" stop-color="#C4C4C4"/>
</linearGradient>
</defs>
</svg>
