<svg width="512" height="512" viewBox="0 0 512 512" fill="none" xmlns="http://www.w3.org/2000/svg" xmlns:xlink="http://www.w3.org/1999/xlink">
<rect width="512" height="512" fill="white"/>
<path d="M256 15L482 137.992V374.008L256 497L30 374.008V137.992L256 15Z" fill="white"/>
<path d="M401.815 106.126L388.941 128.452L373.18 123.82L361.326 144.131L339.423 138.49L327.378 158.599L340.443 180.925L321.725 183.338L318.841 207.275L298.411 209.286L293.691 229.194L274.691 236.446L267.439 255.446L248.439 262.698L241.187 281.698L220.757 289.528L216.228 307.828L194.228 318.09L178.658 299.79L161.479 308.232L149.339 288.729L133.578 291.95L118.816 273.84L101.828 276.053L92.2335 258.874L111.424 252.025L117.856 232.118L138.286 225.269L143.006 205.16L163.436 198.311L167.965 179.81L186.683 177.206L199.557 155.071L217.466 159.397L229.22 139.086L251.123 144.727L263.168 124.618L285.262 130.45L297.211 110.139L319.114 115.78L322.189 91.8429L342.619 89.8322L347.148 71.5321L368.614 63.5097L383.271 82.817L401.815 78.3979L401.815 106.126Z" fill="white" stroke="#E6E7E8" stroke-width="2"/>
<path d="M294.511 145.836C291.246 145.401 287.984 145.83 285.262 147.245L251.123 167.354L229.22 161.713L217.466 182.024L199.557 177.7L186.683 200.026L167.965 202.438L163.436 220.939L143.006 227.788L138.286 247.897L117.856 254.746L111.424 274.653L92.2335 281.502L101.828 298.681L118.816 296.468L133.578 314.577L149.339 311.356L161.479 330.859L178.658 322.417L194.228 340.717L216.228 330.455L220.757 312.155L241.187 304.325L248.439 285.325L267.439 278.073L274.691 259.073L293.691 251.821L298.411 231.913L318.841 229.902L321.725 205.965L340.443 203.552L327.378 181.226L339.423 161.117L361.326 166.758L373.18 146.447L388.941 151.079L401.815 128.753V110.139L383.271 105.43C379.231 104.372 375.02 104.594 371.272 105.952L347.148 114.159L342.619 132.459L322.189 134.47L294.511 145.836Z" fill="#F2F3F4" stroke="#E6E7E8" stroke-width="2"/>
<defs>
    <linearGradient id="gradAsp" x1="0%" y1="0%" x2="0%" y2="100%">
      <stop offset="0%" style="stop-color:#BCC0C4;stop-opacity:1" />
      <stop offset="50%" style="stop-color:#E6E7E8;stop-opacity:1" />
      <stop offset="100%" style="stop-color:#A7A9AC;stop-opacity:1" />
    </linearGradient>
</defs>
<path d="M256.3,165.9c-0.5,0-1,0-1.5,0.1l-43.1,8.6c-2.3,0.5-4,2.6-4,5c0,0.9,0.3,1.8,0.8,2.6l46,74.5c1.4,2.3,4.3,3.2,6.7,2.1 c1.2-0.5,2.2-1.5,2.7-2.8l20.3-51.1c0.1-0.2,0.1-0.4,0.1-0.6v-37c0-2.8-2.3-5.2-5.2-5.2H256.3z M220.8,179.6l28.8-5.8h11.7v24.9 l-13.6,34.1L220.8,179.6z" fill="url(#gradAsp)"/>
<path d="M296.8,165.9h-10c-2.8,0-5.1,2.3-5.1,5.1v56.9c0,1.5,0.7,2.9,1.8,3.9c1.1,0.9,2.6,1.2,4,0.8l38-11.8 c2.6-0.8,4.3-3.3,4.3-6.1v-43c0-2.8-2.3-5.1-5.1-5.1h-16.1L296.8,165.9z M318.8,206.9l-28.9,9v-34.9h4.3l11.7,0.1l4.2,0.1h8.6V206.9z" fill="url(#gradAsp)"/>
<path d="M351.4,165.9H329c-2.8,0-5.1,2.3-5.1,5.1v43c0,2.8,2.3,5.1,5.1,5.1h29.2c2.8,0,5.1-2.3,5.1-5.1v-10.9 c0-2.8-2.3-5.1-5.1-5.1h-17.4v-5.8h17.4c2.8,0,5.1-2.3,5.1-5.1v-10.9c0-2.8-2.3-5.1-5.1-5.1h-22.4V165.9z" fill="url(#gradAsp)"/>
<path d="M241.167 176.433L153.3 197.833C148.967 198.967 146.8 204.333 148.2 208.267L194.5 334.333C195.9 338.267 200.7 340.333 205.033 339.2L292.9 317.8C297.233 316.667 299.4 311.3 298 307.367L251.7 181.3C250.3 177.367 245.5 175.3 241.167 176.433Z" fill="#A7A9AC"/>
<path d="M241.187 178.6L155.133 199.533C151.3 200.533 149.4 205.3 150.667 208.8L196.067 332.333C197.333 335.833 201.633 337.667 205.467 336.667L291.533 315.733C295.367 314.733 297.267 309.967 296 306.467L250.6 182.933C249.333 179.433 245.033 177.6 241.187 178.6Z" fill="#CCCCCC"/>
<g>
    <path d="M155.62,199.98c0,0,32.3-21.3,47.7-20.4c15.4,1,54.4,11.5,54.4,11.5l-33.3,87.2c0,0-26-4.3-43-1.7 c-17,2.6-44.1,8.1-44.1,8.1L155.62,199.98z" fill="url(#gradAsp)"/>
    <path d="M291.02,213.98c0,0-32.3-21.3-47.7-20.4c-15.4,1-54.4,11.5-54.4,11.5l33.3,87.2c0,0,26-4.3,43-1.7 c17,2.6,44.1,8.1,44.1,8.1L291.02,213.98z" fill="url(#gradAsp)"/>
    <path d="M323.72,213.98c0,0-17.4-12.8-29.4-12.2c-12,0.6-35.3,6.9-35.3,6.9l20.4,52.3c0,0,14-2.6,26.1-1c12.1,1.6,28.4,4.9,28.4,4.9 L323.72,213.98z" fill="url(#gradAsp)"/>
</g>
<path d="M272.73 145.155L256.002 136.93L239.274 145.155L244.576 126.965L229.421 114.655L248.514 114.28L256.002 96.5L263.49 114.28L282.583 114.655L267.428 126.965L272.73 145.155Z" fill="#231F20"/>
<path d="M228.5 146.5L256 160L283.5 146.5" stroke="#231F20" stroke-width="2"/>
<path d="M380.3,311.1c-15-2.1-39.2-5.7-39.2-5.7s-36,6.3-58.4,6.2c-22.4-0.1-51-8.5-51-8.5s-43.1,16.5-62.3,16.4 c-19.2-0.1-50.6-25-50.6-25c-0.1-0.1-0.1-0.2-0.1-0.3c0.1-0.7,0.8-1.1,1.5-0.9c0.1,0,0.1,0,0.2,0.1 c17.9,22.3,41.9,22.1,59.3,22.1c20.3,0,51-14.5,51-14.5s31.7,9.3,55.5,9.4c23.8,0.1,48.5-5.9,48.5-5.9s27.8,4,42.8,6.1 c1.1,0.2,2.2-0.5,2.4-1.6C382.1,311.9,381.2,310.9,380.3,311.1z" fill="#00A9E2"/>
<path d="M381.4,321.6c-15-2.1-39.2-5.7-39.2-5.7s-36,6.3-58.4,6.2c-22.4-0.1-51-8.5-51-8.5s-43.1,16.5-62.3,16.4 c-19.2-0.1-50.6-25-50.6-25c-0.1-0.1-0.1-0.2-0.1-0.3c0.1-0.7,0.8-1.1,1.5-0.9c0.1,0,0.1,0,0.2,0.1c17.9,22.3,41.9,22.1,59.3,22.1 c20.3,0,51-14.5,51-14.5s31.7,9.3,55.5,9.4c23.8,0.1,48.5-5.9,48.5-5.9s27.8,4,42.8,6.1c1.1,0.2,2.2-0.5,2.4-1.6 C383.2,322.4,382.3,321.4,381.4,321.6z" fill="#00A9E2"/>
<path d="M119,307.9c19.3,0,50.7-24.9,50.7-24.9s43,16.4,62.3,16.4c22.4,0,51-8.6,51-8.6s36-6.2,58.4-6.2 c22.4,0,39.2,5.7,39.2,5.7c15,2.1,1.8,2.7-0.1,2.7c-2.3-0.1-15.3-2.3-28.9-4.8c-13.6-2.5-35-4-35-4s-26.6,5.3-48,5.2 c-21.4-0.1-47.3-8.8-47.3-8.8s-32.9,13.7-53.7,13.7c-16.8,0-41.2-21-58-23.1c-0.8-0.1-1.5,0.4-1.6,1.2c-0.1,0.8,0.4,1.5,1.2,1.6 C119.1,307.9,119,307.9,119,307.9z" fill="#39B44A"/>
<path d="M119,318.4c19.3,0,50.7-24.9,50.7-24.9s43,16.4,62.3,16.4c22.4,0,51-8.6,51-8.6s36-6.2,58.4-6.2 c22.4,0,39.2,5.7,39.2,5.7c15,2.1,1.8,2.7-0.1,2.7c-2.3-0.1-15.3-2.3-28.9-4.8c-13.6-2.5-35-4-35-4s-26.6,5.3-48,5.2 c-21.4-0.1-47.3-8.8-47.3-8.8s-32.9,13.7-53.7,13.7c-16.8,0-41.2-21-58-23.1c-0.8-0.1-1.5,0.4-1.6,1.2c-0.1,0.8,0.4,1.5,1.2,1.6 C119.1,318.4,119,318.4,119,318.4z" fill="#39B44A"/>
<path d="M380.3,311.1c-15-2.1-39.2-5.7-39.2-5.7s-36,6.3-58.4,6.2c-22.4-0.1-51-8.5-51-8.5s-43.1,16.5-62.3,16.4 c-19.2-0.1-50.6-25-50.6-25c-0.1-0.1-0.1-0.2-0.1-0.3c0.1-0.7,0.8-1.1,1.5-0.9c0.1,0,0.1,0,0.2,0.1 c17.9,22.3,41.9,22.1,59.3,22.1c20.3,0,51-14.5,51-14.5s31.7,9.3,55.5,9.4c23.8,0.1,48.5-5.9,48.5-5.9s27.8,4,42.8,6.1 c1.1,0.2,2.2-0.5,2.4-1.6C382.1,311.9,381.2,310.9,380.3,311.1z" fill="url(#wave_blue)"/>
<path d="M381.4,321.6c-15-2.1-39.2-5.7-39.2-5.7s-36,6.3-58.4,6.2c-22.4-0.1-51-8.5-51-8.5s-43.1,16.5-62.3,16.4 c-19.2-0.1-50.6-25-50.6-25c-0.1-0.1-0.1-0.2-0.1-0.3c0.1-0.7,0.8-1.1,1.5-0.9c0.1,0,0.1,0,0.2,0.1c17.9,22.3,41.9,22.1,59.3,22.1 c20.3,0,51-14.5,51-14.5s31.7,9.3,55.5,9.4c23.8,0.1,48.5-5.9,48.5-5.9s27.8,4,42.8,6.1c1.1,0.2,2.2-0.5,2.4-1.6 C383.2,322.4,382.3,321.4,381.4,321.6z" fill="url(#wave_blue)"/>
<path d="M119,307.9c19.3,0,50.7-24.9,50.7-24.9s43,16.4,62.3,16.4c22.4,0,51-8.6,51-8.6s36-6.2,58.4-6.2 c22.4,0,39.2,5.7,39.2,5.7c15,2.1,1.8,2.7-0.1,2.7c-2.3-0.1-15.3-2.3-28.9-4.8c-13.6-2.5-35-4-35-4s-26.6,5.3-48,5.2 c-21.4-0.1-47.3-8.8-47.3-8.8s-32.9,13.7-53.7,13.7c-16.8,0-41.2-21-58-23.1c-0.8-0.1-1.5,0.4-1.6,1.2c-0.1,0.8,0.4,1.5,1.2,1.6 C119.1,307.9,119,307.9,119,307.9z" fill="url(#wave_green)"/>
<path d="M119,318.4c19.3,0,50.7-24.9,50.7-24.9s43,16.4,62.3,16.4c22.4,0,51-8.6,51-8.6s36-6.2,58.4-6.2 c22.4,0,39.2,5.7,39.2,5.7c15,2.1,1.8,2.7-0.1,2.7c-2.3-0.1-15.3-2.3-28.9-4.8c-13.6-2.5-35-4-35-4s-26.6,5.3-48,5.2 c-21.4-0.1-47.3-8.8-47.3-8.8s-32.9,13.7-53.7,13.7c-16.8,0-41.2-21-58-23.1c-0.8-0.1-1.5,0.4-1.6,1.2c-0.1,0.8,0.4,1.5,1.2,1.6 C119.1,318.4,119,318.4,119,318.4z" fill="url(#wave_green)"/>
<text x="256" y="380" font-family="Arial, sans-serif" font-size="48" font-weight="bold" fill="#231F20" text-anchor="middle">ARAVALLI</text>
<text x="256" y="430" font-family="Arial, sans-serif" font-size="36" font-weight="normal" fill="#231F20" text-anchor="middle">STEEL PVC</text>
<defs>
    <linearGradient id="wave_blue" x1="0%" y1="0%" x2="100%" y2="0%">
        <stop offset="0%" style="stop-color:#00AEEF;stop-opacity:1" />
        <stop offset="100%" style="stop-color:#00A9E2;stop-opacity:1" />
    </linearGradient>
    <linearGradient id="wave_green" x1="0%" y1="0%" x2="100%" y2="0%">
        <stop offset="0%" style="stop-color:#39B54A;stop-opacity:1" />
        <stop offset="100%" style="stop-color:#8DC63F;stop-opacity:1" />
    </linearGradient>
</defs>
</svg>
